<svg width="230" height="251" viewBox="0 0 230 251" fill="none" xmlns="http://www.w3.org/2000/svg">
<path d="M123.02 199.833C120.163 208.245 110.383 213.337 102.437 209.359C91.1097 203.713 78.2548 195.85 65.9684 192.445C64.3486 191.997 47.1342 187.246 47.1342 187.246C44.0863 186.419 41.4499 184.5 39.7269 181.854L13.4343 141.474C10.5608 137.062 10.6701 131.343 13.7098 127.044C13.7098 127.044 42.8569 86.274 44.0699 84.0945C45.2829 81.9149 52.0402 62.1563 55.824 51.5719C56.8269 48.7669 58.7735 46.3971 61.3304 44.8683L107.174 17.4565C113.552 13.6431 121.826 16.0158 125.214 22.6296L149.798 70.6304C151.189 73.3472 151.565 76.4579 150.992 79.455C149.485 87.3405 146.963 103.642 149.277 114.914C151.528 125.878 157.16 138.347 160.169 144.529C161.323 146.901 161.014 149.743 159.259 151.714C155.439 156.008 147.942 164.221 137.572 174.612C130.423 181.776 125.86 191.47 123.02 199.833Z" fill="#6C31E3"/>
<path d="M42.7741 185.114C64.1626 157.055 68.0985 134.72 64.702 117.564C61.5758 101.776 52.2398 90.3742 44.5782 82.9319C44.2312 83.7219 43.8048 84.4762 43.3056 85.1826L13.7093 127.044C10.6695 131.343 10.5602 137.062 13.4337 141.474L39.7264 181.854C40.5513 183.121 41.5856 184.221 42.7741 185.114Z" fill="url(#paint0_radial_2_20)"/>
<path d="M102.442 209.355C110.386 213.333 120.165 208.241 123.022 199.828C125.482 192.586 129.234 184.343 134.84 177.611C129.367 155.371 119.989 142.556 108.354 135.41C96.0391 127.845 81.1961 126.633 65.7812 127.321C66.1356 142.936 60.3335 162.1 42.7918 185.115C44.085 186.087 45.5602 186.813 47.1473 187.244C47.1473 187.244 56.0516 189.781 66.6695 192.654C77.2873 195.527 92.2184 204.238 102.442 209.355Z" fill="url(#paint1_radial_2_20)"/>
<path d="M96.768 130.237C100.818 131.479 104.695 133.165 108.35 135.409C119.987 142.556 129.367 155.373 134.842 177.611C135.707 176.572 136.616 175.569 137.572 174.612C147.942 164.221 155.438 156.008 159.259 151.714C161.014 149.743 161.323 146.901 160.168 144.529C157.159 138.347 151.528 125.878 149.277 114.914C146.963 103.642 149.484 87.3405 150.992 79.455C151.565 76.4578 151.189 73.3471 149.798 70.6304L125.213 22.6295C125.082 22.3728 124.943 22.1226 124.797 21.8788C125.656 30.2219 124.251 36.5226 121.641 41.9889C119.221 47.0562 115.763 51.4064 112.112 56.0013L112.111 56.002C110.886 57.543 109.64 59.1117 108.402 60.7445C103.478 67.2448 98.7097 74.7583 96.1028 85.5761C93.4953 96.3943 93.0489 110.517 96.769 130.237L96.768 130.237Z" fill="url(#paint2_radial_2_20)"/>
<path d="M96.7638 130.236C93.044 110.516 93.4895 96.3932 96.0971 85.5745C98.7047 74.7559 103.473 67.2423 108.398 60.7417C109.635 59.1086 110.882 57.54 112.107 55.9986C115.758 51.4034 119.216 47.0537 121.636 41.9868C124.247 36.5193 125.651 30.2168 124.791 21.87C121.178 15.8387 113.3 13.7925 107.173 17.4563L61.3289 44.868C58.772 46.3968 56.8253 48.7666 55.8225 51.5716L44.9124 82.0898C44.8112 82.3729 44.7 82.6522 44.5791 82.9276C52.2411 90.37 61.5788 101.773 64.7051 117.563C65.3156 120.647 65.6895 123.898 65.7676 127.32C76.6086 126.836 87.1672 127.292 96.7638 130.236Z" fill="url(#paint3_radial_2_20)"/>
<path fill-rule="evenodd" clip-rule="evenodd" d="M96.3143 84.8711C93.7225 95.6016 92.6394 108.282 96.3513 127.96L94.1027 127.305C91.296 106.979 91.7871 96.9358 94.4147 86.0567C97.0437 75.1726 102.246 67.4266 107.192 60.9191C108.445 59.2709 111.206 56.256 112.436 54.7123C116.081 50.1417 118.37 47.7986 120.794 43.4431C124.182 37.3575 124.329 34.1891 124.688 31.078C124.195 42.4826 115.937 50.8646 109.199 59.7295C104.29 66.1873 98.9046 74.1455 96.3143 84.8711Z" fill="url(#paint4_radial_2_20)"/>
<path fill-rule="evenodd" clip-rule="evenodd" d="M66.6997 118.791C67.1723 120.96 67.6726 122.735 67.7031 125.309L65.7086 125.364C65.4801 122.32 65.2689 120.145 64.6547 117.451C61.1167 100.63 52.1183 90.5698 44.6335 83.0176C53.9619 90.6728 62.9436 101.553 66.6997 118.791Z" fill="url(#paint5_radial_2_20)"/>
<path fill-rule="evenodd" clip-rule="evenodd" d="M67.431 127.285C67.7506 144.975 59.453 165.743 43.3506 184.354C57.4478 165.544 66.2193 146.544 65.787 127.314L67.431 127.285Z" fill="url(#paint6_radial_2_20)"/>
<path fill-rule="evenodd" clip-rule="evenodd" d="M109.121 133.874C127.341 145.087 131.744 162.727 134.76 177.314C130.538 161.831 123.878 144.341 108.12 135.244C96.1302 128.322 85.173 126.716 65.7906 127.289L65.7378 125.368C86.3116 124.742 96.7114 126.236 109.121 133.874Z" fill="url(#paint7_radial_2_20)"/>
<circle cx="152.5" cy="172.872" r="77.5" fill="white"/>
<path d="M152.5 93C109.68 93 75 128.209 75 171.682C75 208.659 99.9913 239.348 133.709 248C133.32 247.016 133.128 245.636 133.128 244.263V230.884H123.439C118.209 230.884 113.361 228.527 111.23 224.195C108.711 219.474 108.322 212.195 101.93 207.668C99.9913 206.094 101.541 204.521 103.672 204.715C107.741 205.893 111.033 208.652 114.133 212.777C117.233 216.909 118.591 217.893 124.402 217.893C127.113 217.893 131.374 217.699 135.252 217.103C137.383 211.592 141.063 206.677 145.522 204.32C119.561 201.173 107.161 188.188 107.161 170.483C107.161 162.809 110.452 155.53 115.88 149.236C114.139 143.135 111.811 130.546 116.659 125.631C128.287 125.631 135.259 133.305 137 135.267C142.811 133.299 149.209 132.12 155.791 132.12C162.572 132.12 168.772 133.299 174.583 135.267C176.324 133.299 183.302 125.631 194.924 125.631C199.574 130.352 197.443 143.135 195.504 149.236C200.933 155.336 204.033 162.809 204.033 170.483C204.033 188.188 191.824 201.173 166.061 203.925C173.23 207.661 178.27 218.282 178.27 226.15V244.069C178.27 244.659 178.078 245.248 178.078 245.837C208.3 235.217 230 206.108 230 171.682C230 128.209 195.32 93 152.5 93Z" fill="black"/>
<defs>
<radialGradient id="paint0_radial_2_20" cx="0" cy="0" r="1" gradientUnits="userSpaceOnUse" gradientTransform="translate(41.7298 181.726) rotate(-93.4811) scale(87.8167 58.5209)">
<stop stop-color="white" stop-opacity="0.4"/>
<stop offset="1" stop-opacity="0.1"/>
</radialGradient>
<radialGradient id="paint1_radial_2_20" cx="0" cy="0" r="1" gradientUnits="userSpaceOnUse" gradientTransform="translate(102.975 209.943) rotate(-109.47) scale(71.3576 81.933)">
<stop stop-color="white" stop-opacity="0.3"/>
<stop offset="1" stop-opacity="0.25"/>
</radialGradient>
<radialGradient id="paint2_radial_2_20" cx="0" cy="0" r="1" gradientUnits="userSpaceOnUse" gradientTransform="translate(122.125 160.692) rotate(-71.3915) scale(144.103 106.464)">
<stop stop-color="white" stop-opacity="0.55"/>
<stop offset="1" stop-color="white" stop-opacity="0.05"/>
</radialGradient>
<radialGradient id="paint3_radial_2_20" cx="0" cy="0" r="1" gradientUnits="userSpaceOnUse" gradientTransform="translate(58.7089 122.477) rotate(-66.6283) scale(123.056 83.9215)">
<stop stop-color="white" stop-opacity="0.83"/>
<stop offset="1" stop-color="white" stop-opacity="0.4"/>
</radialGradient>
<radialGradient id="paint4_radial_2_20" cx="0" cy="0" r="1" gradientUnits="userSpaceOnUse" gradientTransform="translate(121.471 66.068) rotate(113.329) scale(64.0288 43.1771)">
<stop stop-color="white" stop-opacity="0"/>
<stop offset="1" stop-color="white" stop-opacity="0.17"/>
</radialGradient>
<radialGradient id="paint5_radial_2_20" cx="0" cy="0" r="1" gradientUnits="userSpaceOnUse" gradientTransform="translate(41.1858 85.6668) rotate(56.4168) scale(47.1795 100.488)">
<stop stop-color="white" stop-opacity="0.2"/>
<stop offset="1" stop-color="white" stop-opacity="0.44"/>
</radialGradient>
<radialGradient id="paint6_radial_2_20" cx="0" cy="0" r="1" gradientUnits="userSpaceOnUse" gradientTransform="translate(71.8442 114.427) rotate(91.2946) scale(55.2974 117.427)">
<stop stop-color="white" stop-opacity="0.25"/>
<stop offset="1" stop-color="white" stop-opacity="0.3"/>
</radialGradient>
<radialGradient id="paint7_radial_2_20" cx="0" cy="0" r="1" gradientUnits="userSpaceOnUse" gradientTransform="translate(135.108 172.841) rotate(-141.203) scale(84.2597 265.16)">
<stop stop-color="white" stop-opacity="0.21"/>
<stop offset="0.46738" stop-color="white" stop-opacity="0.19"/>
<stop offset="1" stop-color="white" stop-opacity="0.29"/>
</radialGradient>
</defs>
</svg>
